<svg xmlns="http://www.w3.org/2000/svg" viewBox="-8640 23 80.546 35"><defs><style>.a{fill:#fff;}</style></defs><path class="a" d="M61.455,30.227l4.773-2.864a4.58,4.58,0,0,0,4.455,2.545c2.545,0,4.454-1.273,4.454-4.136V23.864a6.99,6.99,0,0,1-5.728,2.546,9.573,9.573,0,0,1-9.545-9.546,9.19,9.19,0,0,1,9.545-9.545,6.99,6.99,0,0,1,5.728,2.546V7.637h5.409V25.772c0,6.364-5.09,9.228-10.182,9.228C66.546,35,63.046,33.409,61.455,30.227Zm3.819-13.364a4.784,4.784,0,1,0,4.773-4.454A4.435,4.435,0,0,0,65.273,16.863ZM39.137,30.227l4.773-2.864a4.421,4.421,0,0,0,4.136,2.545c2.545,0,4.455-1.273,4.455-4.136V23.864a6.991,6.991,0,0,1-5.728,2.546,9.573,9.573,0,0,1-9.545-9.546,9.189,9.189,0,0,1,9.545-9.545A6.991,6.991,0,0,1,52.5,9.864V7.637h5.727V25.772c0,6.364-5.09,9.228-10.182,9.228C44.228,35,40.728,33.409,39.137,30.227Zm3.819-13.364a4.435,4.435,0,0,0,4.773,4.455,4.465,4.465,0,1,0,0-8.909A4.435,4.435,0,0,0,42.955,16.863ZM17.136,19.409V7.637h5.728V18.455a3.273,3.273,0,0,0,3.182,3.5c2.227,0,3.5-1.273,3.5-3.818V7.637h6.046V26.727H29.864V24.818a6.99,6.99,0,0,1-5.728,2.545C20.318,27.364,17.136,24.5,17.136,19.409ZM7,26.41V5.728H0V0H19.727V5.728H13.046V26.41Z" transform="translate(-8640 23)"/></svg>